<?xml version="1.0" ?>
<!-- Uploaded to: SVG Repo, www.svgrepo.com, Generator: SVG Repo Mixer Tools -->
<svg width="800px" height="800px" viewBox="0 0 117 117" version="1.1" xmlns="http://www.w3.org/2000/svg" xmlns:xlink="http://www.w3.org/1999/xlink">
<title/>
<desc/>
<defs/>
<g fill="none" fill-rule="evenodd" id="Page-1" stroke="none" stroke-width="1">
<g fill-rule="nonzero" id="pause">
<path d="M58.5,116.6 C90.6,116.6 116.6,90.5 116.6,58.5 C116.6,26.5 90.6,0.4 58.5,0.4 C26.4,0.4 0.4,26.4 0.4,58.5 C0.4,90.6 26.4,116.6 58.5,116.6 Z M58.5,8.5 C86,8.5 108.5,30.9 108.5,58.5 C108.5,86.1 86.1,108.5 58.5,108.5 C30.9,108.5 8.5,86.1 8.5,58.5 C8.5,30.9 31,8.5 58.5,8.5 Z" fill="#4A4A4A" id="Shape"/>
<path d="M47.8,88.7 C50.1,88.7 51.9,86.9 51.9,84.6 L51.9,31.5 C51.9,29.2 50.1,27.4 47.8,27.4 C45.5,27.4 43.7,29.2 43.7,31.5 L43.7,84.6 C43.7,86.9 45.5,88.7 47.8,88.7 Z" fill="#17AB13" id="Shape"/>
<path d="M69.2,88.7 C71.5,88.7 73.3,86.9 73.3,84.6 L73.3,31.5 C73.3,29.2 71.5,27.4 69.2,27.4 C66.9,27.4 65.1,29.2 65.1,31.5 L65.1,84.6 C65.1,86.9 66.9,88.7 69.2,88.7 Z" fill="#17AB13" id="Shape"/>
</g>
</g>
</svg>